# xmcd CD database file
#
# Track frame offsets:
#	180
#	17070
#	35989
#	53469
#	68879
#	83943
#	106803
#	123826
#	141391
#	157190
#	176542
#	192829
#	204636
#	221617
#	239786
#	256429
#	273518
#	290814
#	311696
#
# Disc length: 4348 seconds
#
# Revision: 0
# Processed by: cddbd v1.4b41PL1 Copyright (c) Steve Scherf et al.
# Submitted via: CD2WAV32(EN) R3.17
#
DISCID=2b10fa13
DTITLE=Kenny Rogers - After dark
DYEAR=1900
DGENRE=
TTITLE0=AINT NO SUNSHINE
TTITLE1=THE KING OF FOOL LOVE MAKES
TTITLE2=LET IT BE ME
TTITLE3=YOU DON'T KNOW ME
TTITLE4=HOW SWEET IT IS (TO BE LOVED BY YOU)
TTITLE5=I WILL REMEMBER YOU
TTITLE6=BUY ME A ROSE
TTITLE7=THREE TIME A LADY
TTITLE8=SHARE YOUR LOVE WITH ME
TTITLE9=I CAN'T MAKE YOU LOVE ME
TTITLE10=I DON'T NEED YOU
TTITLE11=THIS MASQUERADE
TTITLE12=SINCE I FELL FOR YOU
TTITLE13=DON'T FALL IN LOVE WITH A DREAMER
TTITLE14=LOVING ARMS
TTITLE15=LOVE DON'T LIVE HERE ANYMORE
TTITLE16=YOU LOOKED SO BEAUTIFUL
TTITLE17=SMALL DARK CLOUD
TTITLE18=THE GREATEST
EXTD=
EXTT0=
EXTT1=
EXTT2=
EXTT3=
EXTT4=
EXTT5=
EXTT6=
EXTT7=
EXTT8=
EXTT9=
EXTT10=
EXTT11=
EXTT12=
EXTT13=
EXTT14=
EXTT15=
EXTT16=
EXTT17=
EXTT18=
PLAYORDER=
